<svg xmlns="http://www.w3.org/2000/svg"  viewBox="0 0 48 48" width="480px" height="480px"><path fill="#ff4081" d="M19.47,27.29V32H0V17.38C1.18,17.13,2.5,17,4,17c12.15,0,12.48,8.12,14.92,9.99 C19.09,27.12,19.27,27.22,19.47,27.29z"/><path fill="#ff4081" d="M30,33v3.25c0,0,0,1.75-2,1.75H-0.1c0.07-0.32,0.1-0.66,0.1-1V27h15c0.51,0,0.94-0.02,1.31-0.04 c0.94-0.05,1.57-0.12,2.61,0.03c0.02,0,0.05,0.01,0.08,0.01c0.34,0.05,1-2,3-2s3,4,6,4c1,0-0.95-1.32,0-1C31,29,30,32.06,30,33z"/><path fill="#455a64" d="M20,32c-2.76,0-5,2.24-5,5c0,0.34,0.03,0.68,0.1,1c0.46,2.28,2.48,4,4.9,4s4.44-1.72,4.9-4 c0.07-0.32,0.1-0.66,0.1-1C25,34.24,22.76,32,20,32z"/><path fill="#b0bec5" d="M20,35c-1.1,0-2,0.9-2,2c0,0.36,0.1,0.71,0.27,1c0.35,0.6,0.99,1,1.73,1s1.38-0.4,1.73-1 C21.9,37.71,22,37.36,22,37C22,35.9,21.1,35,20,35z"/><path fill="#ffc107" d="M28.93,31.09c-0.48-0.47-1.12-0.96-1.93-1.43v2.84c0,0.83,0.67,1.5,1.5,1.5H30v-1 C30,32.47,29.64,31.8,28.93,31.09z"/><path fill="#660636" d="M16.31,26.96c-0.3-0.45-0.56-0.91-0.82-1.4c-1.54-2.8-3.44-6.23-10.49-6.53V27h11.33 C16.32,26.99,16.31,26.97,16.31,26.96z M0,19.42V27h3v-7.97C1.88,19.08,0.89,19.22,0,19.42z"/><g><path fill="#1565c0" d="M31.468,21h-3.369C25.527,21,25,22.532,25,23.588C25,24.645,25.787,25,27.083,25h2.771L31.468,21z"/><path fill="#0277bd" d="M35.69,14H48v25.22c-1.23,0.05-2.56,0.07-4,0.07c-4.63,0-8.4,0.02-11-0.29v2c0,0.5-0.51,1-1,1h-4.11 C27.4,42,27,41.6,27,41.1V27.99c0-0.05,0-0.11,0.01-0.16c0-0.1,0-0.2,0.02-0.3c0.07-0.91,0.37-1.78,0.86-2.53 c0.2-0.3,0.42-0.58,0.68-0.84l1.11-1.13l0.8-2.03l1.88-4.73C32.91,14.9,34.22,14,35.69,14z"/><path fill="#37474f" d="M48,30v5.32c-1,0.25-2.36,0.48-4,0.48c-2.06,0-3.67-0.36-4.7-0.67c-0.79-0.24-1.44-0.81-1.77-1.57 L36,30H48z"/><path fill="#f5f5f5" d="M27.03,27.53h-0.02v1.31c0,0.27-0.01,0.55-0.01,0.82V31c0.64,0.03,1.29,0.06,1.93,0.09 c0.41,0.02,0.82,0.04,1.23,0.06c0.34,0.02,0.67,0.03,1.01,0.05c1.01,0,1.83-0.82,1.83-1.84L27.03,27.53z"/><path fill="#82b1ff" d="M48,15.82V24H31.59c0.83-2.35,1.66-4.7,2.48-7.06c0.12-0.18,0.35-0.51,0.77-0.77 c0.35-0.22,0.68-0.31,0.89-0.35H48z"/><path fill="#b6d2fc" d="M47.42,15.81c-2.5,2.73-5,5.46-7.5,8.19h-2c2.5-2.73,5-5.46,7.5-8.19L47.42,15.81z"/><path fill="#b6d2fc" d="M41.92,24c2.03-2.21,4.05-4.43,6.08-6.64v5.46c-0.36,0.39-0.72,0.79-1.08,1.18H41.92z"/><path fill="#37474f" d="M27.816,42h4.368C32.635,42,33,41.656,33,41.233v-2.297c-1.038-0.18-2.177-0.429-3.388-0.774 c-0.946-0.27-1.818-0.565-2.612-0.865v3.936C27,41.656,27.365,42,27.816,42z"/></g><path fill="#ffd600" d="M19.955,9.091L20.727,6l1.7,3.091l2.936-2.318l-0.618,3.864L30,12.182L25.364,14.5l3.091,3.864	l-4.636-0.927v2.473l-2.473-2.473l-3.709,4.018l0.927-5.409l-4.018-0.773l2.627-2.782L13,9.091l4.636,0.773V7.545L19.955,9.091z"/></svg>