<svg xmlns="http://www.w3.org/2000/svg" width="677" height="369" viewBox="0 0 677 369" version="1.1"><path d="M 326.314 59.799 C 314.266 64.097, 310.366 68.411, 296.748 92.500 C 281.859 118.837, 280.926 120.469, 265.024 148 C 256.605 162.575, 246.637 180.071, 242.872 186.881 C 239.107 193.691, 235.614 199.766, 235.110 200.381 C 234.605 200.996, 233.098 203.525, 231.760 206 C 230.422 208.475, 223.203 221.159, 215.718 234.188 C 197.678 265.589, 197.489 266.048, 197.543 278.500 C 197.580 287.130, 197.942 289.254, 200.181 294 C 203.823 301.720, 209.794 308.069, 217.179 312.073 L 223.500 315.500 338.500 315.500 L 453.500 315.500 459.821 312.073 C 472.156 305.385, 478.945 294.454, 479.740 280 C 480.358 268.779, 478.975 265.015, 465.724 241.854 C 459.949 231.759, 454.096 221.475, 452.717 219 C 449.821 213.801, 424.713 169.922, 407.512 140 C 401.031 128.725, 394.840 117.925, 393.755 116 C 392.670 114.075, 390.310 110.025, 388.510 107 C 386.710 103.975, 381.546 94.975, 377.033 87 C 367.566 70.270, 363.942 66.092, 355.127 61.746 C 346.904 57.692, 334.559 56.858, 326.314 59.799 M 329.759 70.362 C 324.524 72.316, 321.531 74.435, 318.649 78.229 C 316.479 81.086, 285.283 135.025, 256.029 186.500 C 250.716 195.850, 238.247 217.675, 228.322 235 C 218.396 252.325, 209.707 268.253, 209.012 270.396 C 206.470 278.234, 209.371 290.354, 215.343 296.845 C 216.529 298.135, 219.525 300.385, 222 301.845 L 226.500 304.500 336.329 304.767 C 410.347 304.947, 447.423 304.694, 450.037 303.990 C 455.323 302.567, 461.882 297.361, 465.247 291.918 C 468.856 286.081, 469.966 276.284, 467.755 269.794 C 466.162 265.120, 464.917 262.875, 436.538 213.500 C 426.738 196.450, 416.821 179.125, 414.500 175 C 391.745 134.560, 359.320 78.930, 357.179 76.658 C 351.057 70.165, 338.198 67.212, 329.759 70.362 M 331.538 86.250 C 330.123 87.487, 325.901 93.900, 322.156 100.500 C 316.968 109.646, 283.956 167.262, 261.996 205.500 C 223.542 272.460, 223 273.479, 223 278.842 C 223 282.465, 223.574 283.774, 226.400 286.600 L 229.800 290 338.500 290 L 447.200 290 450.600 286.600 C 453.845 283.355, 454.592 280.930, 454.019 275.500 C 453.812 273.532, 447.770 262.194, 437.500 244.500 C 434.627 239.550, 429.220 230.100, 425.485 223.500 C 421.750 216.900, 417.465 209.475, 415.963 207 C 414.461 204.525, 412.119 200.475, 410.758 198 C 408.305 193.540, 378.057 140.809, 368.022 123.500 C 365.153 118.550, 359.427 108.534, 355.300 101.242 C 351.172 93.950, 346.655 87.087, 345.263 85.992 C 341.685 83.178, 334.906 83.305, 331.538 86.250 M 334.538 162.189 C 334.292 162.910, 333.355 168.675, 332.454 175 C 331.553 181.325, 330.675 186.645, 330.503 186.822 C 330.331 186.999, 327.177 184.309, 323.494 180.845 C 313.535 171.478, 313.539 171.480, 309.992 174.006 C 308.346 175.177, 307 176.559, 307 177.075 C 307 178.266, 328.854 208.391, 330.026 208.816 C 330.944 209.149, 330.277 206.492, 327.594 199.124 C 325.272 192.751, 325.551 192.460, 330.180 196.422 C 334.728 200.315, 336 200.780, 336 198.549 C 336 197.751, 336.503 194.752, 337.118 191.885 C 338.405 185.886, 339.406 186.739, 340.482 194.750 C 340.870 197.637, 341.514 200, 341.914 200 C 342.313 200, 344.521 198.390, 346.820 196.422 C 349.119 194.454, 351 193.302, 351 193.862 C 351 194.423, 349.840 198.097, 348.422 202.029 C 347.004 205.960, 346.054 209.388, 346.312 209.646 C 346.570 209.903, 349.616 206.151, 353.082 201.307 C 356.547 196.463, 361.771 189.290, 364.691 185.368 C 367.611 181.445, 370 177.897, 370 177.484 C 370 176.612, 364.820 172.003, 363.838 172.001 C 363.474 172.001, 359.706 175.262, 355.466 179.250 C 351.226 183.238, 347.436 186.625, 347.044 186.778 C 346.652 186.931, 345.763 183.106, 345.069 178.278 C 342.507 160.449, 342.912 161.539, 338.716 161.189 C 336.301 160.988, 334.826 161.341, 334.538 162.189 M 301 199.967 C 299.625 200.404, 291.525 202.663, 283 204.987 C 272.783 207.772, 266.741 209.943, 265.274 211.356 C 263.584 212.984, 262.798 215.425, 262.008 221.500 C 261.436 225.900, 260.247 232.701, 259.366 236.614 L 257.765 243.728 260.776 254.614 C 262.432 260.601, 264.095 266.963, 264.473 268.751 C 265.359 272.945, 268.023 273.631, 275.262 271.526 C 281.335 269.761, 282.357 268.418, 281.421 263.431 C 280.820 260.225, 280.926 260.098, 285.151 258.983 C 287.543 258.351, 294.705 256.333, 301.068 254.497 C 307.430 252.661, 314.267 250.853, 316.262 250.479 C 319.698 249.834, 319.965 249.982, 321.342 253.277 C 322.142 255.190, 323.276 257.053, 323.864 257.416 C 324.993 258.113, 335.748 255.358, 337.574 253.903 C 338.169 253.429, 339.060 253.432, 339.574 253.910 C 340.083 254.384, 342.969 255.480, 345.987 256.346 C 350.851 257.741, 351.730 257.751, 353.737 256.437 C 354.982 255.621, 356 254.050, 356 252.946 C 356 251.841, 356.653 250.686, 357.452 250.380 C 358.701 249.901, 369.208 252.511, 390.861 258.679 L 396.223 260.207 395.643 263.853 C 394.877 268.670, 395.671 269.693, 401.552 271.477 C 407.019 273.136, 410.628 273.410, 411.362 272.224 C 411.626 271.797, 413.499 264.964, 415.524 257.041 C 418.834 244.093, 419.086 242.229, 418.006 238.627 C 417.346 236.423, 416.202 230.017, 415.463 224.393 C 414.725 218.768, 413.531 213.216, 412.811 212.055 C 411.440 209.848, 409.046 209.019, 385.402 202.572 C 366.093 197.306, 366.785 197.160, 358.335 208.306 C 355.753 211.713, 351.789 216.525, 349.528 219 C 346.366 222.460, 344.995 225.117, 343.596 230.500 C 338.987 248.224, 338.807 248.705, 337.778 245.988 C 337.261 244.619, 335.683 239, 334.274 233.500 C 332.072 224.913, 331.127 222.864, 327.580 219 C 325.308 216.525, 321.254 211.575, 318.570 208 C 315.886 204.425, 312.999 200.938, 312.154 200.250 C 310.460 198.872, 304.890 198.730, 301 199.967 M 290 210.952 C 280.925 213.489, 272.773 215.850, 271.884 216.199 C 270.749 216.646, 269.926 219.135, 269.118 224.568 C 268.485 228.821, 268.166 232.500, 268.410 232.743 C 268.653 232.986, 272.823 232.072, 277.676 230.711 C 282.529 229.349, 291 227.022, 296.500 225.539 C 314.979 220.556, 317 219.946, 317 219.357 C 317 218.346, 308.552 207.099, 307.500 206.710 C 306.950 206.506, 299.075 208.415, 290 210.952 M 364.131 213.076 C 361.728 216.386, 359.954 219.287, 360.190 219.523 C 360.914 220.247, 408.231 233.102, 408.646 232.688 C 409.246 232.087, 407.037 217.635, 406.221 216.831 C 405.250 215.872, 372.795 206.992, 370.397 207.029 C 369.247 207.047, 366.780 209.428, 364.131 213.076 M 317.200 230.200 C 316.540 230.860, 316 232.570, 316 234 C 316 237.305, 317.695 239, 321 239 C 324.305 239, 326 237.305, 326 234 C 326 230.695, 324.305 229, 321 229 C 319.570 229, 317.860 229.540, 317.200 230.200 M 352.200 230.200 C 351.540 230.860, 351 232.570, 351 234 C 351 237.305, 352.695 239, 356 239 C 359.305 239, 361 237.305, 361 234 C 361 230.695, 359.305 229, 356 229 C 354.570 229, 352.860 229.540, 352.200 230.200 M 268.200 243.200 C 267.540 243.860, 267 245.570, 267 247 C 267 250.491, 268.726 252, 272.721 252 C 277.200 252, 279.110 248.344, 276.619 244.541 C 274.808 241.777, 270.335 241.065, 268.200 243.200 M 400.500 244.359 C 397.966 248.228, 400.190 251.956, 405.050 251.985 C 408.303 252.004, 410 250.295, 410 247 C 410 243.645, 408.297 242, 404.823 242 C 403.009 242, 401.510 242.818, 400.500 244.359" stroke="none" fill="#f75b09" fill-rule="evenodd"/><path d="M 329.759 70.362 C 324.524 72.316, 321.531 74.435, 318.649 78.229 C 316.479 81.086, 285.283 135.025, 256.029 186.500 C 250.716 195.850, 238.247 217.675, 228.322 235 C 218.396 252.325, 209.707 268.253, 209.012 270.396 C 206.470 278.234, 209.371 290.354, 215.343 296.845 C 216.529 298.135, 219.525 300.385, 222 301.845 L 226.500 304.500 336.329 304.767 C 410.347 304.947, 447.423 304.694, 450.037 303.990 C 455.323 302.567, 461.882 297.361, 465.247 291.918 C 468.856 286.081, 469.966 276.284, 467.755 269.794 C 466.162 265.120, 464.917 262.875, 436.538 213.500 C 426.738 196.450, 416.821 179.125, 414.500 175 C 391.745 134.560, 359.320 78.930, 357.179 76.658 C 351.057 70.165, 338.198 67.212, 329.759 70.362 M 331.538 86.250 C 330.123 87.487, 325.901 93.900, 322.156 100.500 C 316.968 109.646, 283.956 167.262, 261.996 205.500 C 223.542 272.460, 223 273.479, 223 278.842 C 223 282.465, 223.574 283.774, 226.400 286.600 L 229.800 290 338.500 290 L 447.200 290 450.600 286.600 C 453.845 283.355, 454.592 280.930, 454.019 275.500 C 453.812 273.532, 447.770 262.194, 437.500 244.500 C 434.627 239.550, 429.220 230.100, 425.485 223.500 C 421.750 216.900, 417.465 209.475, 415.963 207 C 414.461 204.525, 412.119 200.475, 410.758 198 C 408.305 193.540, 378.057 140.809, 368.022 123.500 C 365.153 118.550, 359.427 108.534, 355.300 101.242 C 351.172 93.950, 346.655 87.087, 345.263 85.992 C 341.685 83.178, 334.906 83.305, 331.538 86.250 M 334.538 162.189 C 334.292 162.910, 333.355 168.675, 332.454 175 C 331.553 181.325, 330.675 186.645, 330.503 186.822 C 330.331 186.999, 327.177 184.309, 323.494 180.845 C 313.535 171.478, 313.539 171.480, 309.992 174.006 C 308.346 175.177, 307 176.559, 307 177.075 C 307 178.266, 328.854 208.391, 330.026 208.816 C 330.944 209.149, 330.277 206.492, 327.594 199.124 C 325.272 192.751, 325.551 192.460, 330.180 196.422 C 334.728 200.315, 336 200.780, 336 198.549 C 336 197.751, 336.503 194.752, 337.118 191.885 C 338.405 185.886, 339.406 186.739, 340.482 194.750 C 340.870 197.637, 341.514 200, 341.914 200 C 342.313 200, 344.521 198.390, 346.820 196.422 C 349.119 194.454, 351 193.302, 351 193.862 C 351 194.423, 349.840 198.097, 348.422 202.029 C 347.004 205.960, 346.054 209.388, 346.312 209.646 C 346.570 209.903, 349.616 206.151, 353.082 201.307 C 356.547 196.463, 361.771 189.290, 364.691 185.368 C 367.611 181.445, 370 177.897, 370 177.484 C 370 176.612, 364.820 172.003, 363.838 172.001 C 363.474 172.001, 359.706 175.262, 355.466 179.250 C 351.226 183.238, 347.436 186.625, 347.044 186.778 C 346.652 186.931, 345.763 183.106, 345.069 178.278 C 342.507 160.449, 342.912 161.539, 338.716 161.189 C 336.301 160.988, 334.826 161.341, 334.538 162.189 M 301 199.967 C 299.625 200.404, 291.525 202.663, 283 204.987 C 272.783 207.772, 266.741 209.943, 265.274 211.356 C 263.584 212.984, 262.798 215.425, 262.008 221.500 C 261.436 225.900, 260.247 232.701, 259.366 236.614 L 257.765 243.728 260.776 254.614 C 262.432 260.601, 264.095 266.963, 264.473 268.751 C 265.359 272.945, 268.023 273.631, 275.262 271.526 C 281.335 269.761, 282.357 268.418, 281.421 263.431 C 280.820 260.225, 280.926 260.098, 285.151 258.983 C 287.543 258.351, 294.705 256.333, 301.068 254.497 C 307.430 252.661, 314.267 250.853, 316.262 250.479 C 319.698 249.834, 319.965 249.982, 321.342 253.277 C 322.142 255.190, 323.276 257.053, 323.864 257.416 C 324.993 258.113, 335.748 255.358, 337.574 253.903 C 338.169 253.429, 339.060 253.432, 339.574 253.910 C 340.083 254.384, 342.969 255.480, 345.987 256.346 C 350.851 257.741, 351.730 257.751, 353.737 256.437 C 354.982 255.621, 356 254.050, 356 252.946 C 356 251.841, 356.653 250.686, 357.452 250.380 C 358.701 249.901, 369.208 252.511, 390.861 258.679 L 396.223 260.207 395.643 263.853 C 394.877 268.670, 395.671 269.693, 401.552 271.477 C 407.019 273.136, 410.628 273.410, 411.362 272.224 C 411.626 271.797, 413.499 264.964, 415.524 257.041 C 418.834 244.093, 419.086 242.229, 418.006 238.627 C 417.346 236.423, 416.202 230.017, 415.463 224.393 C 414.725 218.768, 413.531 213.216, 412.811 212.055 C 411.440 209.848, 409.046 209.019, 385.402 202.572 C 366.093 197.306, 366.785 197.160, 358.335 208.306 C 355.753 211.713, 351.789 216.525, 349.528 219 C 346.366 222.460, 344.995 225.117, 343.596 230.500 C 338.987 248.224, 338.807 248.705, 337.778 245.988 C 337.261 244.619, 335.683 239, 334.274 233.500 C 332.072 224.913, 331.127 222.864, 327.580 219 C 325.308 216.525, 321.254 211.575, 318.570 208 C 315.886 204.425, 312.999 200.938, 312.154 200.250 C 310.460 198.872, 304.890 198.730, 301 199.967 M 290 210.952 C 280.925 213.489, 272.773 215.850, 271.884 216.199 C 270.749 216.646, 269.926 219.135, 269.118 224.568 C 268.485 228.821, 268.166 232.500, 268.410 232.743 C 268.653 232.986, 272.823 232.072, 277.676 230.711 C 282.529 229.349, 291 227.022, 296.500 225.539 C 314.979 220.556, 317 219.946, 317 219.357 C 317 218.346, 308.552 207.099, 307.500 206.710 C 306.950 206.506, 299.075 208.415, 290 210.952 M 364.131 213.076 C 361.728 216.386, 359.954 219.287, 360.190 219.523 C 360.914 220.247, 408.231 233.102, 408.646 232.688 C 409.246 232.087, 407.037 217.635, 406.221 216.831 C 405.250 215.872, 372.795 206.992, 370.397 207.029 C 369.247 207.047, 366.780 209.428, 364.131 213.076 M 317.200 230.200 C 316.540 230.860, 316 232.570, 316 234 C 316 237.305, 317.695 239, 321 239 C 324.305 239, 326 237.305, 326 234 C 326 230.695, 324.305 229, 321 229 C 319.570 229, 317.860 229.540, 317.200 230.200 M 352.200 230.200 C 351.540 230.860, 351 232.570, 351 234 C 351 237.305, 352.695 239, 356 239 C 359.305 239, 361 237.305, 361 234 C 361 230.695, 359.305 229, 356 229 C 354.570 229, 352.860 229.540, 352.200 230.200 M 268.200 243.200 C 267.540 243.860, 267 245.570, 267 247 C 267 250.491, 268.726 252, 272.721 252 C 277.200 252, 279.110 248.344, 276.619 244.541 C 274.808 241.777, 270.335 241.065, 268.200 243.200 M 400.500 244.359 C 397.966 248.228, 400.190 251.956, 405.050 251.985 C 408.303 252.004, 410 250.295, 410 247 C 410 243.645, 408.297 242, 404.823 242 C 403.009 242, 401.510 242.818, 400.500 244.359" stroke="none" fill="#161b25" fill-rule="evenodd"/></svg>